<?xml version="1.0" encoding="utf-8"?>
<svg id="master-artboard" viewBox="0 0 1400 800" version="1.1" xmlns="http://www.w3.org/2000/svg" x="0px" y="0px" style="enable-background:new 0 0 1400 980;" width="1400px" height="800px"><defs><style id="ee-google-fonts">@import url(https://fonts.googleapis.com/css?family=Audiowide:400|Alegreya+Sans+SC:100,100italic,300,300italic,400,400italic,500,500italic,700,700italic,800,800italic,900,900italic);</style></defs><rect id="ee-background" x="0" y="0" width="1400" height="800" style="fill: white; fill-opacity: 0; pointer-events: none;"/><path d="M 26.6200008392334 19.991483688354492 C 26.6200008392334 20.911483764648438 26.503334045410156 21.738149642944336 26.270000457763672 22.47148323059082 C 26.036666870117188 23.198150634765625 25.729999542236328 23.838150024414062 25.350000381469727 24.391483306884766 C 24.963333129882812 24.94481658935547 24.516666412353516 25.418149948120117 24.010000228881836 25.81148338317871 C 23.510000228881836 26.198150634765625 22.983333587646484 26.514816284179688 22.43000030517578 26.761484146118164 C 21.8700008392334 27.008150100708008 21.30666732788086 27.191482543945312 20.739999771118164 27.31148338317871 C 20.1733341217041 27.424816131591797 19.636667251586914 27.481483459472656 19.1299991607666 27.481483459472656 L 9.520000457763672 27.481483459472656 C 8.779999732971191 27.481483459472656 7.973333358764648 27.351484298706055 7.099999904632568 27.09148406982422 C 6.21999979019165 26.831483840942383 5.409999847412109 26.404817581176758 4.670000076293945 25.81148338317871 C 3.9233334064483643 25.218151092529297 3.299999952316284 24.44481658935547 2.799999952316284 23.491483688354492 C 2.299999952316284 22.544816970825195 2.049999952316284 21.378150939941406 2.049999952316284 19.991483688354492 L 2.049999952316284 12.78148365020752 C 2.049999952316284 11.414815902709961 2.299999952316284 10.254816055297852 2.799999952316284 9.301483154296875 C 3.299999952316284 8.348150253295898 3.9233334064483643 7.574817657470703 4.670000076293945 6.981483459472656 C 5.409999847412109 6.388149261474609 6.21999979019165 5.961483001708984 7.099999904632568 5.701482772827148 C 7.973333358764648 5.4414825439453125 8.779999732971191 5.311483383178711 9.520000457763672 5.311483383178711 L 19.1299991607666 5.311483383178711 C 20.496665954589844 5.311483383178711 21.65999984741211 5.558149337768555 22.6200008392334 6.051483154296875 C 23.579999923706055 6.544816970825195 24.35333251953125 7.164815902709961 24.940000534057617 7.9114837646484375 C 25.52666664123535 8.651483535766602 25.953332901000977 9.461483001708984 26.219999313354492 10.341484069824219 C 26.486665725708008 11.21481704711914 26.6200008392334 12.02815055847168 26.6200008392334 12.78148365020752 L 26.6200008392334 19.991483688354492 M 21.290000915527344 12.821483612060547 C 21.290000915527344 12.081483840942383 21.10333251953125 11.53481674194336 20.729999542236328 11.18148422241211 C 20.363332748413086 10.821483612060547 19.829999923706055 10.641483306884766 19.1299991607666 10.641483306884766 L 9.5600004196167 10.641483306884766 C 8.84666633605957 10.641483306884766 8.306666374206543 10.824817657470703 7.940000057220459 11.191482543945312 C 7.566666603088379 11.551483154296875 7.380000114440918 12.081483840942383 7.380000114440918 12.78148365020752 L 7.380000114440918 19.991483688354492 C 7.380000114440918 20.691482543945312 7.566666603088379 21.224817276000977 7.940000057220459 21.59148406982422 C 8.306666374206543 21.96481704711914 8.84666633605957 22.1514835357666 9.5600004196167 22.1514835357666 L 19.1299991607666 22.1514835357666 C 19.856666564941406 22.1514835357666 20.39666748046875 21.96481704711914 20.75 21.59148406982422 C 21.110000610351562 21.224817276000977 21.290000915527344 20.691482543945312 21.290000915527344 19.991483688354492 L 21.290000915527344 12.821483612060547 ZM 55.59820556640625 19.991483688354492 C 55.59820556640625 20.911483764648438 55.48154067993164 21.738149642944336 55.248207092285156 22.47148323059082 C 55.01487350463867 23.198150634765625 54.70820617675781 23.838150024414062 54.328208923339844 24.391483306884766 C 53.9415397644043 24.94481658935547 53.494873046875 25.418149948120117 52.98820495605469 25.81148338317871 C 52.48154067993164 26.198150634765625 51.9515380859375 26.514816284179688 51.39820861816406 26.761484146118164 C 50.844871520996094 27.008150100708008 50.2882080078125 27.191482543945312 49.728206634521484 27.31148338317871 C 49.16820526123047 27.424816131591797 48.63487243652344 27.481483459472656 48.128204345703125 27.481483459472656 L 38.50820541381836 27.481483459472656 L 38.50820541381836 22.1514835357666 L 48.128204345703125 22.1514835357666 C 48.84153747558594 22.1514835357666 49.374874114990234 21.96481704711914 49.728206634521484 21.59148406982422 C 50.08820724487305 21.224817276000977 50.26820755004883 20.691482543945312 50.26820755004883 19.991483688354492 L 50.26820755004883 12.821483612060547 C 50.26820755004883 12.081483840942383 50.08487319946289 11.53481674194336 49.71820831298828 11.18148422241211 C 49.35820770263672 10.821483612060547 48.828208923339844 10.641483306884766 48.128204345703125 10.641483306884766 L 38.558204650878906 10.641483306884766 C 37.831539154052734 10.641483306884766 37.28153991699219 10.824817657470703 36.908206939697266 11.191482543945312 C 36.541542053222656 11.551483154296875 36.35820770263672 12.081483840942383 36.35820770263672 12.78148365020752 L 36.35820770263672 34.41148376464844 L 31.02820587158203 34.41148376464844 L 31.02820587158203 12.78148365020752 C 31.02820587158203 11.861483573913574 31.144872665405273 11.038150787353516 31.378206253051758 10.311483383178711 C 31.611539840698242 9.591484069824219 31.921539306640625 8.954816818237305 32.30820846557617 8.401483535766602 C 32.7015380859375 7.848150253295898 33.14820861816406 7.37481689453125 33.64820861816406 6.981483459472656 C 34.15487289428711 6.594816207885742 34.68487548828125 6.27815055847168 35.23820495605469 6.031482696533203 C 35.791542053222656 5.784816741943359 36.351539611816406 5.604816436767578 36.91820526123047 5.491483688354492 C 37.491539001464844 5.371482849121094 38.02153778076172 5.311483383178711 38.50820541381836 5.311483383178711 L 48.128204345703125 5.311483383178711 C 49.0482063293457 5.311483383178711 49.86820602416992 5.428150177001953 50.58820724487305 5.6614837646484375 C 51.31487274169922 5.894817352294922 51.954872131347656 6.201482772827148 52.508209228515625 6.581483840942383 C 53.06153869628906 6.968149185180664 53.534873962402344 7.414815902709961 53.92820739746094 7.921483993530273 C 54.31487274169922 8.421483993530273 54.63153839111328 8.948150634765625 54.878204345703125 9.501483917236328 C 55.124874114990234 10.061483383178711 55.30487060546875 10.621482849121094 55.41820526123047 11.18148422241211 C 55.5382080078125 11.741483688354492 55.59820556640625 12.274816513061523 55.59820556640625 12.78148365020752 L 55.59820556640625 19.991483688354492 ZM 81.61502838134766 27.481483459472656 L 67.16502380371094 27.481483459472656 C 66.4250259399414 27.481483459472656 65.61836242675781 27.351484298706055 64.74502563476562 27.09148406982422 C 63.865028381347656 26.831483840942383 63.05502700805664 26.404817581176758 62.315025329589844 25.81148338317871 C 61.568359375 25.218151092529297 60.94502639770508 24.44481658935547 60.44502639770508 23.491483688354492 C 59.94502639770508 22.544816970825195 59.69502639770508 21.378150939941406 59.69502639770508 19.991483688354492 L 59.69502639770508 12.78148365020752 C 59.69502639770508 12.274816513061523 59.755027770996094 11.741483688354492 59.87502670288086 11.18148422241211 C 59.98836135864258 10.621482849121094 60.16836166381836 10.061483383178711 60.4150276184082 9.501483917236328 C 60.66169357299805 8.948150634765625 60.97835922241211 8.421483993530273 61.365028381347656 7.921483993530273 C 61.75836181640625 7.414815902709961 62.231693267822266 6.968149185180664 62.78502655029297 6.581483840942383 C 63.33835983276367 6.201482772827148 63.97502899169922 5.894817352294922 64.69503021240234 5.6614837646484375 C 65.42169189453125 5.428150177001953 66.24502563476562 5.311483383178711 67.16502380371094 5.311483383178711 L 81.61502838134766 5.311483383178711 L 81.61502838134766 10.641483306884766 L 67.16502380371094 10.641483306884766 C 66.46502685546875 10.641483306884766 65.93502807617188 10.821483612060547 65.57502746582031 11.18148422241211 C 65.20835876464844 11.53481674194336 65.0250244140625 12.081483840942383 65.0250244140625 12.821483612060547 L 65.0250244140625 19.991483688354492 C 65.0250244140625 20.691482543945312 65.2116928100586 21.224817276000977 65.58502960205078 21.59148406982422 C 65.95169067382812 21.96481704711914 66.49169158935547 22.1514835357666 67.20502471923828 22.1514835357666 L 81.61502838134766 22.1514835357666 L 81.61502838134766 27.481483459472656 ZM 109.98074340820312 19.991483688354492 C 109.98074340820312 20.911483764648438 109.86407470703125 21.738149642944336 109.6307373046875 22.47148323059082 C 109.39740753173828 23.198150634765625 109.09074401855469 23.838150024414062 108.71073913574219 24.391483306884766 C 108.3240737915039 24.94481658935547 107.87741088867188 25.418149948120117 107.37074279785156 25.81148338317871 C 106.87074279785156 26.198150634765625 106.34407043457031 26.514816284179688 105.79074096679688 26.761484146118164 C 105.23074340820312 27.008150100708008 104.66740417480469 27.191482543945312 104.10073852539062 27.31148338317871 C 103.53407287597656 27.424816131591797 102.99740600585938 27.481483459472656 102.49073791503906 27.481483459472656 L 92.8807373046875 27.481483459472656 C 92.14073944091797 27.481483459472656 91.33407592773438 27.351484298706055 90.46073913574219 27.09148406982422 C 89.58074188232422 26.831483840942383 88.77073669433594 26.404817581176758 88.0307388305664 25.81148338317871 C 87.28407287597656 25.218151092529297 86.6607437133789 24.44481658935547 86.1607437133789 23.491483688354492 C 85.6607437133789 22.544816970825195 85.4107437133789 21.378150939941406 85.4107437133789 19.991483688354492 L 85.4107437133789 12.78148365020752 C 85.4107437133789 11.414815902709961 85.6607437133789 10.254816055297852 86.1607437133789 9.301483154296875 C 86.6607437133789 8.348150253295898 87.28407287597656 7.574817657470703 88.0307388305664 6.981483459472656 C 88.77073669433594 6.388149261474609 89.58074188232422 5.961483001708984 90.46073913574219 5.701482772827148 C 91.33407592773438 5.4414825439453125 92.14073944091797 5.311483383178711 92.8807373046875 5.311483383178711 L 102.49073791503906 5.311483383178711 C 103.85740661621094 5.311483383178711 105.02073669433594 5.558149337768555 105.98074340820312 6.051483154296875 C 106.94074249267578 6.544816970825195 107.71407318115234 7.164815902709961 108.30074310302734 7.9114837646484375 C 108.88740539550781 8.651483535766602 109.31407165527344 9.461483001708984 109.58074188232422 10.341484069824219 C 109.84740447998047 11.21481704711914 109.98074340820312 12.02815055847168 109.98074340820312 12.78148365020752 L 109.98074340820312 19.991483688354492 M 104.65074157714844 12.821483612060547 C 104.65074157714844 12.081483840942383 104.46407318115234 11.53481674194336 104.09074401855469 11.18148422241211 C 103.72407531738281 10.821483612060547 103.19074249267578 10.641483306884766 102.49073791503906 10.641483306884766 L 92.92073822021484 10.641483306884766 C 92.20740509033203 10.641483306884766 91.66740417480469 10.824817657470703 91.30074310302734 11.191482543945312 C 90.92740631103516 11.551483154296875 90.74073791503906 12.081483840942383 90.74073791503906 12.78148365020752 L 90.74073791503906 19.991483688354492 C 90.74073791503906 20.691482543945312 90.92740631103516 21.224817276000977 91.30074310302734 21.59148406982422 C 91.66740417480469 21.96481704711914 92.20740509033203 22.1514835357666 92.92073822021484 22.1514835357666 L 102.49073791503906 22.1514835357666 C 103.2174072265625 22.1514835357666 103.75740814208984 21.96481704711914 104.1107406616211 21.59148406982422 C 104.47074127197266 21.224817276000977 104.65074157714844 20.691482543945312 104.65074157714844 19.991483688354492 L 104.65074157714844 12.821483612060547 ZM 138.82894897460938 19.991483688354492 C 138.82894897460938 20.911483764648438 138.71560668945312 21.738149642944336 138.4889373779297 22.47148323059082 C 138.255615234375 23.198150634765625 137.9456024169922 23.838150024414062 137.55894470214844 24.391483306884766 C 137.17893981933594 24.94481658935547 136.73561096191406 25.418149948120117 136.22894287109375 25.81148338317871 C 135.72227478027344 26.198150634765625 135.19227600097656 26.514816284179688 134.63894653320312 26.761484146118164 C 134.08560180664062 27.008150100708008 133.52560424804688 27.191482543945312 132.9589385986328 27.31148338317871 C 132.39227294921875 27.424816131591797 131.85560607910156 27.481483459472656 131.34893798828125 27.481483459472656 L 121.72894287109375 27.481483459472656 C 120.81560516357422 27.481483459472656 119.99560546875 27.364816665649414 119.2689437866211 27.13148307800293 C 118.54227447509766 26.898149490356445 117.90227508544922 26.588150024414062 117.34893798828125 26.20148277282715 C 116.79560852050781 25.808149337768555 116.32560729980469 25.358150482177734 115.9389419555664 24.851482391357422 C 115.54560852050781 24.351482391357422 115.2256088256836 23.824817657470703 114.97894287109375 23.271484375 C 114.7322769165039 22.718151092529297 114.55227661132812 22.154815673828125 114.4389419555664 21.581483840942383 C 114.32560729980469 21.014816284179688 114.2689437866211 20.484817504882812 114.2689437866211 19.991483688354492 L 114.2689437866211 12.78148365020752 C 114.2689437866211 11.414815902709961 114.51560974121094 10.254816055297852 115.00894165039062 9.301483154296875 C 115.50894165039062 8.348150253295898 116.13227844238281 7.574817657470703 116.87894439697266 6.981483459472656 C 117.6256103515625 6.388149261474609 118.43560791015625 5.961483001708984 119.30894470214844 5.701482772827148 C 120.1822738647461 5.4414825439453125 120.98893737792969 5.311483383178711 121.72894287109375 5.311483383178711 L 131.34893798828125 5.311483383178711 L 131.34893798828125 10.641483306884766 L 121.7689437866211 10.641483306884766 C 121.06227111816406 10.641483306884766 120.52227783203125 10.824817657470703 120.14894104003906 11.191482543945312 C 119.78227233886719 11.551483154296875 119.59893798828125 12.081483840942383 119.59893798828125 12.78148365020752 L 119.59893798828125 19.95148277282715 C 119.59893798828125 20.678150177001953 119.77893829345703 21.224817276000977 120.1389389038086 21.59148406982422 C 120.49893951416016 21.96481704711914 121.02894592285156 22.1514835357666 121.72894287109375 22.1514835357666 L 131.34893798828125 22.1514835357666 C 132.0756072998047 22.1514835357666 132.6156005859375 21.96481704711914 132.96893310546875 21.59148406982422 C 133.32228088378906 21.224817276000977 133.4989471435547 20.691482543945312 133.4989471435547 19.991483688354492 L 133.4989471435547 -4.0585174560546875 L 138.82894897460938 -4.0585174560546875 L 138.82894897460938 19.991483688354492 ZM 167.76589965820312 12.651483535766602 C 167.76589965820312 13.391483306884766 167.63589477539062 14.188150405883789 167.37588500976562 15.041483879089355 C 167.1158905029297 15.894816398620605 166.69589233398438 16.68815040588379 166.1158905029297 17.42148208618164 C 165.535888671875 18.154815673828125 164.7792205810547 18.768150329589844 163.84588623046875 19.26148223876953 C 162.90589904785156 19.748149871826172 161.76589965820312 19.991483688354492 160.42588806152344 19.991483688354492 L 150.80589294433594 19.991483688354492 L 150.80589294433594 14.931483268737793 L 160.42588806152344 14.931483268737793 C 161.15255737304688 14.931483268737793 161.71255493164062 14.708149909973145 162.10589599609375 14.261483192443848 C 162.50588989257812 13.821483612060547 162.70590209960938 13.271483421325684 162.70590209960938 12.611483573913574 C 162.70590209960938 11.918149948120117 162.48255920410156 11.371482849121094 162.035888671875 10.97148323059082 C 161.5892333984375 10.578149795532227 161.0525665283203 10.38148307800293 160.42588806152344 10.38148307800293 L 150.80589294433594 10.38148307800293 C 150.0858917236328 10.38148307800293 149.52589416503906 10.601484298706055 149.1259002685547 11.041482925415039 C 148.73255920410156 11.488150596618652 148.535888671875 12.0381498336792 148.535888671875 12.691483497619629 L 148.535888671875 20.141483306884766 C 148.535888671875 20.8481502532959 148.75588989257812 21.4014835357666 149.19589233398438 21.801483154296875 C 149.64256286621094 22.19481658935547 150.19256591796875 22.391483306884766 150.84588623046875 22.391483306884766 L 160.42588806152344 22.391483306884766 L 160.42588806152344 27.481483459472656 L 150.80589294433594 27.481483459472656 C 150.0725555419922 27.481483459472656 149.27589416503906 27.351484298706055 148.4158935546875 27.09148406982422 C 147.56256103515625 26.831483840942383 146.76922607421875 26.411483764648438 146.035888671875 25.831483840942383 C 145.30923461914062 25.251483917236328 144.69923400878906 24.491483688354492 144.2058868408203 23.551483154296875 C 143.71255493164062 22.61815071105957 143.4658966064453 21.481483459472656 143.4658966064453 20.141483306884766 L 143.4658966064453 12.651483535766602 C 143.4658966064453 11.918149948120117 143.59588623046875 11.121482849121094 143.85589599609375 10.261484146118164 C 144.1158905029297 9.408149719238281 144.535888671875 8.614816665649414 145.1158905029297 7.88148307800293 C 145.69589233398438 7.154817581176758 146.4558868408203 6.544816970825195 147.39588928222656 6.051483154296875 C 148.3292236328125 5.558149337768555 149.4658966064453 5.311483383178711 150.80589294433594 5.311483383178711 L 160.42588806152344 5.311483383178711 C 161.1658935546875 5.311483383178711 161.96255493164062 5.4414825439453125 162.81588745117188 5.701482772827148 C 163.66921997070312 5.961483001708984 164.46255493164062 6.38148307800293 165.19589233398438 6.961483001708984 C 165.92922973632812 7.541482925415039 166.5392303466797 8.301483154296875 167.02589416503906 9.241483688354492 C 167.51922607421875 10.174816131591797 167.76589965820312 11.311483383178711 167.76589965820312 12.651483535766602 Z" transform="matrix(7.297347068786621, 0, 0, 7.297347068786621, 50.07488250732422, 257.0884094238281)" style="fill: rgb(51, 51, 51); white-space: pre; color: rgb(51, 51, 51);"/><path d="M 6.900000095367432 12.555556297302246 L 1.5299999713897705 12.555556297302246 L 1.6200000047683716 9.275556564331055 L 1.5299999713897705 1.6555566787719727 L 2.9200000762939453 1.6555566787719727 L 2.8399999141693115 9.155555725097656 L 2.890000104904175 11.415555953979492 L 6.920000076293945 11.415555953979492 L 7.019999980926514 11.53555679321289 L 6.900000095367432 12.555556297302246 ZM 11.319149017333984 3.9855566024780273 C 12.559148788452148 3.9855566024780273 13.509149551391602 4.348889350891113 14.169149398803711 5.07555627822876 C 14.82914924621582 5.802222728729248 15.159149169921875 6.828889846801758 15.159149169921875 8.155555725097656 C 15.159149169921875 9.595556259155273 14.805815696716309 10.708889961242676 14.099149703979492 11.495555877685547 C 13.39248275756836 12.282222747802734 12.382482528686523 12.675556182861328 11.069149017333984 12.675556182861328 C 9.842482566833496 12.675556182861328 8.8958158493042 12.305556297302246 8.229148864746094 11.565556526184082 C 7.562482833862305 10.818889617919922 7.229149341583252 9.758890151977539 7.229149341583252 8.3855562210083 C 7.229149341583252 6.985556125640869 7.585815906524658 5.902223110198975 8.299149513244629 5.135556221008301 C 9.012482643127441 4.368889808654785 10.019149780273438 3.9855566024780273 11.319149017333984 3.9855566024780273 M 11.199149131774902 5.055556297302246 C 10.305815696716309 5.055556297302246 9.64248275756836 5.312222957611084 9.209149360656738 5.82555627822876 C 8.769149780273438 6.332222938537598 8.549149513244629 7.135556221008301 8.549149513244629 8.235555648803711 C 8.549149513244629 9.415555953979492 8.765815734863281 10.272222518920898 9.199149131774902 10.805556297302246 C 9.625816345214844 11.338890075683594 10.282482147216797 11.60555648803711 11.169149398803711 11.60555648803711 C 12.07581615447998 11.60555648803711 12.749149322509766 11.345556259155273 13.189149856567383 10.825555801391602 C 13.63581657409668 10.29888916015625 13.859149932861328 9.482223510742188 13.859149932861328 8.375556945800781 C 13.859149932861328 7.228889465332031 13.639148712158203 6.388889789581299 13.199149131774902 5.855556488037109 C 12.765815734863281 5.32222318649292 12.099149703979492 5.055556297302246 11.199149131774902 5.055556297302246 ZM 20.75690269470215 4.005556106567383 C 21.696903228759766 4.005556106567383 22.513568878173828 4.20222282409668 23.2069034576416 4.595556259155273 L 22.966903686523438 5.7755560874938965 L 22.81690216064453 5.82555627822876 C 22.210235595703125 5.312222957611084 21.47690200805664 5.055556297302246 20.61690330505371 5.055556297302246 C 18.896902084350586 5.055556297302246 18.036903381347656 6.128889560699463 18.036903381347656 8.275556564331055 C 18.036903381347656 9.348889350891113 18.25690269470215 10.168889999389648 18.696903228759766 10.735556602478027 C 19.13690185546875 11.302223205566406 19.77690315246582 11.585556030273438 20.61690330505371 11.585556030273438 C 21.47690200805664 11.585556030273438 22.260236740112305 11.325555801391602 22.966903686523438 10.805556297302246 L 23.11690330505371 10.85555648803711 L 22.996902465820312 12.025556564331055 C 22.230236053466797 12.445556640625 21.420236587524414 12.655556678771973 20.56690216064453 12.655556678771973 C 19.320236206054688 12.655556678771973 18.363569259643555 12.285555839538574 17.696903228759766 11.54555606842041 C 17.030235290527344 10.79888916015625 16.696903228759766 9.742222785949707 16.696903228759766 8.375556945800781 C 16.696903228759766 6.982223033905029 17.050235748291016 5.9055562019348145 17.75690269470215 5.145556449890137 C 18.46356964111328 4.385556221008301 19.46356964111328 4.005556106567383 20.75690269470215 4.005556106567383 ZM 30.59587287902832 12.555556297302246 L 30.395872116088867 11.6355562210083 L 29.95587158203125 10.375555992126465 L 27.925872802734375 10.365556716918945 L 26.125873565673828 10.375555992126465 L 25.66587257385254 11.565556526184082 L 25.425872802734375 12.555556297302246 L 24.175872802734375 12.555556297302246 L 27.43587303161621 4.0855560302734375 L 28.895872116088867 4.0855560302734375 L 31.875873565673828 12.555556297302246 L 30.59587287902832 12.555556297302246 M 28.18587303161621 5.32555627822876 L 28.07587242126465 5.32555627822876 L 26.535873413085938 9.345556259155273 L 28.0258731842041 9.35555648803711 L 29.59587287902832 9.345556259155273 L 28.18587303161621 5.32555627822876 ZM 38.448726654052734 12.555556297302246 L 33.948726654052734 12.555556297302246 L 33.99872589111328 10.005556106567383 L 33.948726654052734 4.0855560302734375 L 35.218727111816406 4.0855560302734375 L 35.16872787475586 9.905555725097656 L 35.198726654052734 11.485556602478027 L 38.468727111816406 11.485556602478027 L 38.538726806640625 11.60555648803711 L 38.448726654052734 12.555556297302246 ZM 47.13151550292969 1.575556755065918 C 48.27818298339844 1.575556755065918 49.271514892578125 1.8455562591552734 50.111515045166016 2.385556221008301 L 49.841514587402344 3.625555992126465 L 49.681514739990234 3.665555953979492 C 48.92818069458008 3.0322227478027344 48.05818176269531 2.7155561447143555 47.07151412963867 2.7155561447143555 C 45.99151611328125 2.7155561447143555 45.16151428222656 3.0855560302734375 44.581512451171875 3.825556755065918 C 44.008182525634766 4.565556526184082 43.72151565551758 5.652223110198975 43.72151565551758 7.085556507110596 C 43.72151565551758 8.518889427185059 44.008182525634766 9.615556716918945 44.581512451171875 10.375555992126465 C 45.16151428222656 11.1355562210083 45.978179931640625 11.515556335449219 47.03151321411133 11.515556335449219 C 48.078182220458984 11.515556335449219 49.02484893798828 11.172223091125488 49.87151336669922 10.485556602478027 L 50.0415153503418 10.565556526184082 L 49.92151641845703 11.85555648803711 C 48.93484878540039 12.402222633361816 47.931514739990234 12.675556182861328 46.91151428222656 12.675556182861328 C 45.451515197753906 12.675556182861328 44.318180084228516 12.20222282409668 43.511512756347656 11.255556106567383 C 42.71151351928711 10.308889389038086 42.31151580810547 8.955556869506836 42.31151580810547 7.195556163787842 C 42.31151580810547 5.395556449890137 42.728179931640625 4.008889198303223 43.56151580810547 3.035555839538574 C 44.40151596069336 2.062223434448242 45.591514587402344 1.575556755065918 47.13151550292969 1.575556755065918 ZM 55.224369049072266 3.9855566024780273 C 56.4643669128418 3.9855566024780273 57.41436767578125 4.348889350891113 58.07436752319336 5.07555627822876 C 58.73436737060547 5.802222728729248 59.064369201660156 6.828889846801758 59.064369201660156 8.155555725097656 C 59.064369201660156 9.595556259155273 58.711036682128906 10.708889961242676 58.00436782836914 11.495555877685547 C 57.29770278930664 12.282222747802734 56.28770065307617 12.675556182861328 54.974369049072266 12.675556182861328 C 53.747703552246094 12.675556182861328 52.8010368347168 12.305556297302246 52.134368896484375 11.565556526184082 C 51.46770095825195 10.818889617919922 51.134368896484375 9.758890151977539 51.134368896484375 8.3855562210083 C 51.134368896484375 6.985556125640869 51.49103546142578 5.902223110198975 52.204368591308594 5.135556221008301 C 52.917701721191406 4.368889808654785 53.92436981201172 3.9855566024780273 55.224369049072266 3.9855566024780273 M 55.1043701171875 5.055556297302246 C 54.211036682128906 5.055556297302246 53.54770278930664 5.312222957611084 53.1143684387207 5.82555627822876 C 52.67436981201172 6.332222938537598 52.454368591308594 7.135556221008301 52.454368591308594 8.235555648803711 C 52.454368591308594 9.415555953979492 52.67103576660156 10.272222518920898 53.1043701171875 10.805556297302246 C 53.531036376953125 11.338890075683594 54.18770217895508 11.60555648803711 55.07436752319336 11.60555648803711 C 55.98103332519531 11.60555648803711 56.65436935424805 11.345556259155273 57.09436798095703 10.825555801391602 C 57.54103469848633 10.29888916015625 57.76436996459961 9.482223510742188 57.76436996459961 8.375556945800781 C 57.76436996459961 7.228889465332031 57.544368743896484 6.388889789581299 57.1043701171875 5.855556488037109 C 56.67103576660156 5.32222318649292 56.00436782836914 5.055556297302246 55.1043701171875 5.055556297302246 ZM 69.23212432861328 12.555556297302246 L 69.04212188720703 9.975556373596191 L 68.59212493896484 6.065556526184082 L 68.48212432861328 6.065556526184082 L 66.0521240234375 11.60555648803711 L 65.0521240234375 11.60555648803711 L 62.75212097167969 6.065556526184082 L 62.652122497558594 6.065556526184082 L 62.21212387084961 9.865556716918945 L 61.97212219238281 12.555556297302246 L 60.88212203979492 12.555556297302246 L 61.82212448120117 4.0855560302734375 L 63.3021240234375 4.0855560302734375 L 63.72212219238281 5.365556240081787 L 65.58212280273438 9.915555953979492 L 65.68212127685547 9.915555953979492 L 67.62212371826172 5.29555606842041 L 68.06211853027344 4.0855560302734375 L 69.50212097167969 4.0855560302734375 L 70.37212371826172 12.555556297302246 L 69.23212432861328 12.555556297302246 ZM 80.84159851074219 12.555556297302246 L 80.65159606933594 9.975556373596191 L 80.20159912109375 6.065556526184082 L 80.09159851074219 6.065556526184082 L 77.6615982055664 11.60555648803711 L 76.6615982055664 11.60555648803711 L 74.3615951538086 6.065556526184082 L 74.2615966796875 6.065556526184082 L 73.82159423828125 9.865556716918945 L 73.58159637451172 12.555556297302246 L 72.4916000366211 12.555556297302246 L 73.43159484863281 4.0855560302734375 L 74.9115982055664 4.0855560302734375 L 75.33159637451172 5.365556240081787 L 77.19159698486328 9.915555953979492 L 77.29159545898438 9.915555953979492 L 79.23159790039062 5.29555606842041 L 79.67160034179688 4.0855560302734375 L 81.1115951538086 4.0855560302734375 L 81.98159790039062 12.555556297302246 L 80.84159851074219 12.555556297302246 ZM 89.90106964111328 12.555556297302246 L 89.7010726928711 11.6355562210083 L 89.26107025146484 10.375555992126465 L 87.23107147216797 10.365556716918945 L 85.43106842041016 10.375555992126465 L 84.9710693359375 11.565556526184082 L 84.73107147216797 12.555556297302246 L 83.48107147216797 12.555556297302246 L 86.74107360839844 4.0855560302734375 L 88.2010726928711 4.0855560302734375 L 91.18106842041016 12.555556297302246 L 89.90106964111328 12.555556297302246 M 87.49107360839844 5.32555627822876 L 87.38107299804688 5.32555627822876 L 85.84107208251953 9.345556259155273 L 87.33106994628906 9.35555648803711 L 88.90106964111328 9.345556259155273 L 87.49107360839844 5.32555627822876 ZM 100.32392883300781 12.555556297302246 L 98.96392822265625 12.555556297302246 L 94.5039291381836 6.095556259155273 L 94.4239273071289 6.095556259155273 L 94.4039306640625 9.735556602478027 L 94.44393157958984 12.555556297302246 L 93.28392791748047 12.555556297302246 L 93.33393096923828 10.055556297302246 L 93.3039321899414 4.0855560302734375 L 94.64392852783203 4.0855560302734375 L 99.09393310546875 10.54555606842041 L 99.21392822265625 10.54555606842041 L 99.18392944335938 4.135556221008301 L 100.35392761230469 4.055556297302246 L 100.3039321899414 10.025556564331055 L 100.32392883300781 12.555556297302246 ZM 106.7345962524414 4.025556564331055 C 108.0212631225586 4.025556564331055 109.0079345703125 4.368889808654785 109.69459533691406 5.055556297302246 C 110.38126373291016 5.748889446258545 110.72459411621094 6.742222785949707 110.72459411621094 8.03555679321289 C 110.72459411621094 9.515556335449219 110.35126495361328 10.655556678771973 109.60459899902344 11.45555591583252 C 108.8579330444336 12.248889923095703 107.78459930419922 12.645556449890137 106.38459777832031 12.645556449890137 C 105.31126403808594 12.645556449890137 104.3212661743164 12.615556716918945 103.41459655761719 12.555556297302246 L 103.464599609375 10.005556106567383 L 103.41459655761719 4.0855560302734375 L 106.7345962524414 4.025556564331055 M 106.59459686279297 11.60555648803711 C 107.50126647949219 11.60555648803711 108.20126342773438 11.328889846801758 108.69459533691406 10.775556564331055 C 109.18792724609375 10.228889465332031 109.43460083007812 9.398889541625977 109.43460083007812 8.28555679321289 C 109.43460083007812 6.1588897705078125 108.49793243408203 5.095556259155273 106.62459564208984 5.095556259155273 C 106.0712661743164 5.095556259155273 105.4212646484375 5.115556240081787 104.67459869384766 5.1555562019348145 L 104.63459777832031 9.905555725097656 L 104.65459442138672 11.505556106567383 C 105.4012680053711 11.572222709655762 106.04792785644531 11.60555648803711 106.59459686279297 11.60555648803711 ZM 118.84996795654297 1.575556755065918 C 119.62996673583984 1.575556755065918 120.4399642944336 1.7455558776855469 121.27996826171875 2.0855560302734375 L 121.05996704101562 3.3955564498901367 L 120.8199691772461 3.4555559158325195 C 120.13996887207031 2.935556411743164 119.4266357421875 2.675556182861328 118.67996978759766 2.675556182861328 C 118.25996398925781 2.675556182861328 117.89330291748047 2.762223243713379 117.57996368408203 2.935556411743164 C 117.27330017089844 3.1022233963012695 117.03663635253906 3.3222227096557617 116.86996459960938 3.5955562591552734 C 116.70330047607422 3.868889808654785 116.61996459960938 4.152222633361816 116.61996459960938 4.445556640625 C 116.61996459960938 4.752223014831543 116.71330261230469 5.022222995758057 116.89996337890625 5.255556106567383 C 117.08663177490234 5.488889694213867 117.32330322265625 5.688889503479004 117.60997009277344 5.855556488037109 C 117.88996887207031 6.0288896560668945 118.27330017089844 6.232223033905029 118.75996398925781 6.4655561447143555 C 119.37329864501953 6.752223014831543 119.86663055419922 7.015556335449219 120.2399673461914 7.255556106567383 C 120.61329650878906 7.502223014831543 120.93330383300781 7.812222957611084 121.19996643066406 8.185556411743164 C 121.46663665771484 8.558889389038086 121.59996795654297 9.012223243713379 121.59996795654297 9.54555606842041 C 121.59996795654297 10.112222671508789 121.4466323852539 10.632223129272461 121.13996887207031 11.10555648803711 C 120.8399658203125 11.585556030273438 120.40996551513672 11.965556144714355 119.84996795654297 12.245555877685547 C 119.296630859375 12.532222747802734 118.66329956054688 12.675556182861328 117.94996643066406 12.675556182861328 C 116.9032974243164 12.675556182861328 115.9266357421875 12.418889999389648 115.01996612548828 11.905556678771973 L 115.1899642944336 10.515556335449219 L 115.37996673583984 10.425556182861328 C 115.77996826171875 10.812223434448242 116.219970703125 11.098889350891113 116.69996643066406 11.28555679321289 C 117.17996978759766 11.472223281860352 117.63996887207031 11.565556526184082 118.07996368408203 11.565556526184082 C 118.51329803466797 11.565556526184082 118.89663696289062 11.482222557067871 119.22996520996094 11.315556526184082 C 119.56330108642578 11.142223358154297 119.8199691772461 10.915555953979492 119.99996948242188 10.6355562210083 C 120.17330169677734 10.348889350891113 120.25996398925781 10.04888916015625 120.25996398925781 9.735556602478027 C 120.25996398925781 9.255556106567383 120.07996368408203 8.872222900390625 119.719970703125 8.585556030273438 C 119.35330200195312 8.29888916015625 118.80329895019531 7.985556125640869 118.0699691772461 7.645556449890137 C 117.469970703125 7.345556259155273 116.98663330078125 7.082222938537598 116.61996459960938 6.855556488037109 C 116.25996398925781 6.622222900390625 115.94996643066406 6.32222318649292 115.6899642944336 5.955556392669678 C 115.42996978759766 5.582222938537598 115.29996490478516 5.128889560699463 115.29996490478516 4.595556259155273 C 115.29996490478516 4.04222297668457 115.44996643066406 3.5322227478027344 115.74996948242188 3.065556526184082 C 116.04996490478516 2.6055564880371094 116.46663665771484 2.242222785949707 116.99996948242188 1.9755563735961914 C 117.53997039794922 1.7088899612426758 118.15663146972656 1.575556755065918 118.84996795654297 1.575556755065918 ZM 130.9329071044922 12.555556297302246 L 129.67291259765625 12.555556297302246 L 129.73291015625 10.005556106567383 L 129.71290588378906 8.845556259155273 L 125.1029052734375 8.865556716918945 L 125.0829086303711 9.905555725097656 L 125.12290954589844 12.555556297302246 L 123.86290740966797 12.555556297302246 L 123.91291046142578 10.005556106567383 L 123.86290740966797 4.0855560302734375 L 125.14290618896484 4.0855560302734375 L 125.1029052734375 7.725556373596191 L 127.40290832519531 7.745556354522705 L 129.71290588378906 7.725556373596191 L 129.67291259765625 4.0855560302734375 L 130.95291137695312 4.0855560302734375 L 130.9029083251953 9.905555725097656 L 130.9329071044922 12.555556297302246 ZM 137.3235626220703 3.9855566024780273 C 138.56356811523438 3.9855566024780273 139.51356506347656 4.348889350891113 140.17356872558594 5.07555627822876 C 140.83355712890625 5.802222728729248 141.16355895996094 6.828889846801758 141.16355895996094 8.155555725097656 C 141.16355895996094 9.595556259155273 140.8102264404297 10.708889961242676 140.1035614013672 11.495555877685547 C 139.3968963623047 12.282222747802734 138.38690185546875 12.675556182861328 137.0735626220703 12.675556182861328 C 135.84689331054688 12.675556182861328 134.9002227783203 12.305556297302246 134.2335662841797 11.565556526184082 C 133.56689453125 10.818889617919922 133.2335662841797 9.758890151977539 133.2335662841797 8.3855562210083 C 133.2335662841797 6.985556125640869 133.59022521972656 5.902223110198975 134.30355834960938 5.135556221008301 C 135.0168914794922 4.368889808654785 136.0235595703125 3.9855566024780273 137.3235626220703 3.9855566024780273 M 137.2035675048828 5.055556297302246 C 136.3102264404297 5.055556297302246 135.6468963623047 5.312222957611084 135.21356201171875 5.82555627822876 C 134.7735595703125 6.332222938537598 134.55355834960938 7.135556221008301 134.55355834960938 8.235555648803711 C 134.55355834960938 9.415555953979492 134.77023315429688 10.272222518920898 135.2035675048828 10.805556297302246 C 135.63023376464844 11.338890075683594 136.28689575195312 11.60555648803711 137.17356872558594 11.60555648803711 C 138.08023071289062 11.60555648803711 138.75355529785156 11.345556259155273 139.1935577392578 10.825555801391602 C 139.64022827148438 10.29888916015625 139.86355590820312 9.482223510742188 139.86355590820312 8.375556945800781 C 139.86355590820312 7.228889465332031 139.6435546875 6.388889789581299 139.2035675048828 5.855556488037109 C 138.77023315429688 5.32222318649292 138.1035614013672 5.055556297302246 137.2035675048828 5.055556297302246 ZM 147.35130310058594 9.1355562210083 C 148.0446319580078 10.188889503479004 148.81130981445312 11.225556373596191 149.65130615234375 12.245555877685547 L 149.6313018798828 12.415555953979492 C 149.15797424316406 12.568889617919922 148.76797485351562 12.655556678771973 148.4613037109375 12.675556182861328 L 148.24130249023438 12.535555839538574 C 147.3813018798828 11.235556602478027 146.72796630859375 10.212223052978516 146.28131103515625 9.465556144714355 L 144.68130493164062 9.475556373596191 L 144.68130493164062 9.905555725097656 L 144.72129821777344 12.555556297302246 L 143.4613037109375 12.555556297302246 L 143.5113067626953 10.005556106567383 L 143.4613037109375 4.0855560302734375 L 146.35130310058594 4.075556755065918 C 147.24464416503906 4.075556755065918 147.93463134765625 4.285555839538574 148.4213104248047 4.705556392669678 C 148.90130615234375 5.118889808654785 149.1413116455078 5.722222805023193 149.1413116455078 6.515556335449219 C 149.1413116455078 7.095556259155273 148.98463439941406 7.612223148345947 148.6713104248047 8.065556526184082 C 148.35797119140625 8.518889427185059 147.91796875 8.875555992126465 147.35130310058594 9.1355562210083 M 146.30130004882812 8.475556373596191 C 147.30796813964844 8.195556640625 147.81130981445312 7.578889846801758 147.81130981445312 6.625556468963623 C 147.81130981445312 6.125556468963623 147.66464233398438 5.748889446258545 147.37130737304688 5.495556354522705 C 147.07797241210938 5.248889446258545 146.6313018798828 5.115556240081787 146.03131103515625 5.095556259155273 L 144.72129821777344 5.105556488037109 L 144.70130920410156 8.425556182861328 L 146.30130004882812 8.475556373596191 ZM 156.5332794189453 5.265556335449219 L 154.95327758789062 5.145556449890137 L 154.103271484375 5.145556449890137 L 154.05328369140625 9.905555725097656 L 154.103271484375 12.555556297302246 L 152.82327270507812 12.555556297302246 L 152.88327026367188 10.005556106567383 L 152.84327697753906 5.145556449890137 L 151.99327087402344 5.145556449890137 L 150.38327026367188 5.265556335449219 L 150.2732696533203 5.145556449890137 L 150.38327026367188 4.0855560302734375 L 156.55328369140625 4.0855560302734375 L 156.62327575683594 4.195556640625 L 156.5332794189453 5.265556335449219 ZM 161.31138610839844 4.005556106567383 C 162.2513885498047 4.005556106567383 163.06805419921875 4.20222282409668 163.76138305664062 4.595556259155273 L 163.52137756347656 5.7755560874938965 L 163.3713836669922 5.82555627822876 C 162.7647247314453 5.312222957611084 162.03138732910156 5.055556297302246 161.17138671875 5.055556297302246 C 159.45138549804688 5.055556297302246 158.5913848876953 6.128889560699463 158.5913848876953 8.275556564331055 C 158.5913848876953 9.348889350891113 158.81138610839844 10.168889999389648 159.2513885498047 10.735556602478027 C 159.69139099121094 11.302223205566406 160.33139038085938 11.585556030273438 161.17138671875 11.585556030273438 C 162.03138732910156 11.585556030273438 162.81471252441406 11.325555801391602 163.52137756347656 10.805556297302246 L 163.67138671875 10.85555648803711 L 163.5513916015625 12.025556564331055 C 162.7847137451172 12.445556640625 161.97471618652344 12.655556678771973 161.1213836669922 12.655556678771973 C 159.87472534179688 12.655556678771973 158.9180450439453 12.285555839538574 158.2513885498047 11.54555606842041 C 157.584716796875 10.79888916015625 157.2513885498047 9.742222785949707 157.2513885498047 8.375556945800781 C 157.2513885498047 6.982223033905029 157.60472106933594 5.9055562019348145 158.31138610839844 5.145556449890137 C 159.01805114746094 4.385556221008301 160.01805114746094 4.005556106567383 161.31138610839844 4.005556106567383 ZM 172.39735412597656 9.615556716918945 C 172.40402221679688 10.575555801391602 172.11068725585938 11.322222709655762 171.51734924316406 11.85555648803711 C 170.92401123046875 12.38888931274414 170.0706787109375 12.655556678771973 168.9573516845703 12.655556678771973 C 167.8573455810547 12.655556678771973 167.02069091796875 12.392223358154297 166.44735717773438 11.865556716918945 C 165.8673553466797 11.338890075683594 165.5873565673828 10.588890075683594 165.6073455810547 9.615556716918945 L 165.62734985351562 8.325555801391602 L 165.6073455810547 4.0855560302734375 L 166.88735961914062 4.0855560302734375 L 166.81735229492188 9.405555725097656 C 166.79734802246094 10.845556259155273 167.52735900878906 11.565556526184082 169.00735473632812 11.565556526184082 C 170.4940185546875 11.565556526184082 171.22735595703125 10.845556259155273 171.2073516845703 9.405555725097656 L 171.14735412597656 4.0855560302734375 L 172.44735717773438 4.0855560302734375 L 172.39735412597656 8.3855562210083 L 172.39735412597656 9.615556716918945 ZM 180.44912719726562 5.265556335449219 L 178.86912536621094 5.145556449890137 L 178.0191192626953 5.145556449890137 L 177.96913146972656 9.905555725097656 L 178.0191192626953 12.555556297302246 L 176.73912048339844 12.555556297302246 L 176.7991180419922 10.005556106567383 L 176.75912475585938 5.145556449890137 L 175.90911865234375 5.145556449890137 L 174.2991180419922 5.265556335449219 L 174.18911743164062 5.145556449890137 L 174.2991180419922 4.0855560302734375 L 180.46913146972656 4.0855560302734375 L 180.53912353515625 4.195556640625 L 180.44912719726562 5.265556335449219 ZM 184.81817626953125 4.005556106567383 C 185.51150512695312 4.005556106567383 186.20150756835938 4.142223358154297 186.88818359375 4.415555953979492 L 186.66818237304688 5.66555643081665 L 186.46817016601562 5.725556373596191 C 185.86817932128906 5.232223033905029 185.27151489257812 4.985556125640869 184.6781768798828 4.985556125640869 C 184.19151306152344 4.985556125640869 183.8081817626953 5.115556240081787 183.52818298339844 5.375556468963623 C 183.24151611328125 5.628889560699463 183.09817504882812 5.91888952255249 183.09817504882812 6.245556354522705 C 183.09817504882812 6.578889846801758 183.23817443847656 6.845556259155273 183.51817321777344 7.04555606842041 C 183.7981719970703 7.252223014831543 184.22483825683594 7.478889465332031 184.7981719970703 7.725556373596191 C 185.31150817871094 7.95222282409668 185.71817016601562 8.155555725097656 186.01817321777344 8.335556030273438 C 186.31817626953125 8.522222518920898 186.5781707763672 8.765556335449219 186.7981719970703 9.065556526184082 C 187.01817321777344 9.365556716918945 187.128173828125 9.728889465332031 187.128173828125 10.155555725097656 C 187.128173828125 10.602222442626953 187.0081787109375 11.015556335449219 186.76817321777344 11.395556449890137 C 186.53485107421875 11.768889427185059 186.18817138671875 12.072222709655762 185.72817993164062 12.305556297302246 C 185.26817321777344 12.53888988494873 184.7215118408203 12.655556678771973 184.0881805419922 12.655556678771973 C 183.20150756835938 12.655556678771973 182.378173828125 12.462223052978516 181.61817932128906 12.075556755065918 L 181.77818298339844 10.735556602478027 L 181.94818115234375 10.665555953979492 C 182.26150512695312 10.985556602478027 182.6315155029297 11.232222557067871 183.0581817626953 11.405556678771973 C 183.48484802246094 11.585556030273438 183.878173828125 11.675556182861328 184.23817443847656 11.675556182861328 C 184.71817016601562 11.675556182861328 185.10818481445312 11.54555606842041 185.40817260742188 11.28555679321289 C 185.71484375 11.032222747802734 185.86817932128906 10.725556373596191 185.86817932128906 10.365556716918945 C 185.86817932128906 10.025556564331055 185.73150634765625 9.752223014831543 185.4581756591797 9.54555606842041 C 185.1781768798828 9.338890075683594 184.74484252929688 9.102222442626953 184.15817260742188 8.835556030273438 C 183.6715087890625 8.615556716918945 183.27151489257812 8.415555953979492 182.9581756591797 8.235555648803711 C 182.6448516845703 8.055556297302246 182.3815155029297 7.815556526184082 182.16818237304688 7.515556335449219 C 181.94818115234375 7.2155561447143555 181.8381805419922 6.8488898277282715 181.8381805419922 6.41555643081665 C 181.8381805419922 5.962223052978516 181.96151733398438 5.555556297302246 182.2081756591797 5.195556163787842 C 182.45484924316406 4.828889846801758 182.801513671875 4.5388898849487305 183.24818420410156 4.325556755065918 C 183.69483947753906 4.112222671508789 184.21817016601562 4.005556106567383 184.81817626953125 4.005556106567383 Z" transform="matrix(5.433128356933594, 0, 0, 5.433128356933594, 324.5946350097656, 466.5002136230469)" style="fill: rgb(51, 51, 51); white-space: pre; color: rgb(51, 51, 51);"/></svg>